PathFileType	4	(X/Y/Z)	/Users/niels/Desktop/University/Third Semester/Perception and Action/Exam/Gymnastics Motion Tracking/Code for Gym Tracking/Analyzed Data/Start Salto/stsalto_bad_id15_1_Sports2D/stsalto_bad_id15_1_Sports2D_px_person00.trc
DataRate	CameraRate	NumFrames	NumMarkers	Units	OrigDataRate	OrigDataStartFrame	OrigNumFrames
29.85576923076923	29.85576923076923	9	22	m	29.85576923076923	78	208
Frame#	Time	Hip			RHip			RKnee			RAnkle			RBigToe			RSmallToe			RHeel			LHip			LKnee			LAnkle			LBigToe			LSmallToe			LHeel			Neck			Head			Nose			RShoulder			RElbow			RWrist			LShoulder			LElbow			LWrist		
		X1	Y1	Z1	X2	Y2	Z2	X3	Y3	Z3	X4	Y4	Z4	X5	Y5	Z5	X6	Y6	Z6	X7	Y7	Z7	X8	Y8	Z8	X9	Y9	Z9	X10	Y10	Z10	X11	Y11	Z11	X12	Y12	Z12	X13	Y13	Z13	X14	Y14	Z14	X15	Y15	Z15	X16	Y16	Z16	X17	Y17	Z17	X18	Y18	Z18	X19	Y19	Z19	X20	Y20	Z20	X21	Y21	Z21	X22	Y22	Z22
78	2.61256038647343	1.112011217409536	-0.4313542011421029	0.0	1.1046096049476217	-0.43036935123371856	0.0	0.9669654374780219	-0.4169416405188963	0.0	1.0562524942507532	-0.3322089056801437	0.0	1.0428528308676865	-0.301716062981255	0.0	1.050887303797412	-0.30592061714865765	0.0	1.070151224494691	-0.31549309170317646	0.0	1.1122576542245235	-0.43394361410020305	0.0	0.9782729633205246	-0.4110285825017046	0.0	1.0584294596742574	-0.32855373028172913	0.0	1.0427773510461913	-0.293598459889887	0.0	1.0547733706041509	-0.29683354596298966	0.0	1.068622986260367	-0.31226154056560124	0.0	0.9930235084087122	-0.558427623153329	0.0	0.9183939033434007	-0.5680379126355367	0.0	0.9369851191436375	-0.556275572119514	0.0	0.9983766741935244	-0.5516723698462463	0.0	0.9444508718658037	-0.49501836764916757	0.0	0.9106730915711861	-0.5628065711939638	0.0	1.0121302594147485	-0.5510045615659775	0.0	0.9567585802375289	-0.5049639692304452	0.0	0.9309446491444191	-0.5566483994345965	0.0
79	2.6460547504025764	1.1197586162083193	-0.4385580874739203	0.0	1.1121298512135576	-0.4384756999030996	0.0	0.9757289929951232	-0.4148984048994314	0.0	1.0694379366399287	-0.3373628458088742	0.0	1.056439334360254	-0.30559845644066747	0.0	1.0648678513013046	-0.31247084864625296	0.0	1.0841093595839086	-0.3218566994495813	0.0	1.119687606820207	-0.44136882272236694	0.0	0.9888986179741086	-0.4098145769570595	0.0	1.0724538640987091	-0.3332645888568704	0.0	1.05782906086629	-0.3014170497367555	0.0	1.0708535129958672	-0.3026269852380049	0.0	1.0839699143457167	-0.317280607111943	0.0	0.9949605448382853	-0.5601857957181728	0.0	0.9198783532880055	-0.5698166196851938	0.0	0.9403942521957711	-0.556485906938959	0.0	1.0005626432634511	-0.5539053990342677	0.0	0.9480724197849234	-0.4966111485894885	0.0	0.9118119126555206	-0.5627074195830558	0.0	1.015182723827882	-0.5524750593110094	0.0	0.9625014538355995	-0.5083473930610515	0.0	0.9353548086100206	-0.5570002769808173	0.0
80	2.679549114331723	1.1275894261427275	-0.44623866006385804	0.0	1.119825230700345	-0.44702506005853615	0.0	0.9850707934510562	-0.41332488111648186	0.0	1.0830311408343003	-0.34323807417351987	0.0	1.0705383778031359	-0.309382324816383	0.0	1.0793611854361993	-0.3187426978625714	0.0	1.0986159946778145	-0.32963777021319957	0.0	1.1269849931717364	-0.44898170593093933	0.0	0.999235312315393	-0.4088121913913768	0.0	1.0864421508424882	-0.33876182089993606	0.0	1.0736441359190545	-0.30757472278665626	0.0	1.0860970372767327	-0.3075626327467215	0.0	1.0998719632668699	-0.323134658742661	0.0	0.9971591518686654	-0.5613388457249419	0.0	0.9215875807462796	-0.5714666282728613	0.0	0.9449665289159904	-0.5560739380735731	0.0	1.0026509554273608	-0.5562383789373608	0.0	0.9514143134215338	-0.4982008112693728	0.0	0.9130493907388485	-0.5625888040762352	0.0	1.0184225309794541	-0.5533188778659953	0.0	0.9669198816514485	-0.5107688662171906	0.0	0.9386828759188526	-0.557071442186171	0.0
81	2.7130434782608694	1.1353559957408084	-0.45434988364571893	0.0	1.1277907837798844	-0.45587229766995435	0.0	0.99504104808597	-0.4122673641902158	0.0	1.097146460806773	-0.34940816160271726	0.0	1.085579516626108	-0.3128223610693018	0.0	1.0948011998262013	-0.323825946062358	0.0	1.1137402452738514	-0.3382033119480634	0.0	1.1342514102279158	-0.4566565188150579	0.0	1.0089541462038827	-0.40796329391863717	0.0	1.100360080077273	-0.3446333683429738	0.0	1.0906209249972967	-0.3115991808480312	0.0	1.1007558317695514	-0.31138756064094114	0.0	1.1162533250460354	-0.32996739728007773	0.0	0.9994280794249878	-0.5617243643989392	0.0	0.9234533666008572	-0.5720754238702229	0.0	0.9502212540138377	-0.5550284207283656	0.0	1.0046639836962208	-0.5581977810621644	0.0	0.9544570520871036	-0.4994737032572693	0.0	0.9145757684929416	-0.5623254942646816	0.0	1.021526741910342	-0.5533363326128133	0.0	0.9693565037292042	-0.5120624589418352	0.0	0.9404791502513505	-0.5568655409653005	0.0
82	2.746537842190016	1.1428068221960221	-0.4629361268352009	0.0	1.1358836589215566	-0.46480289347316195	0.0	1.0056362040525786	-0.4117908902011069	0.0	1.111662543351992	-0.35564295360650056	0.0	1.1016491805012523	-0.3156333858246405	0.0	1.111225602488311	-0.32720183228789096	0.0	1.1293847125089023	-0.3470179673366431	0.0	1.141400108029593	-0.46442508763018636	0.0	1.0181198489772672	-0.4073685324441816	0.0	1.1141199469404948	-0.3506613140480984	0.0	1.108690051864231	-0.3138342734445788	0.0	1.1152521585743882	-0.3144099991486446	0.0	1.1328963702262964	-0.3379957209427726	0.0	1.0015996610852418	-0.5614689133855064	0.0	0.9253684066834847	-0.5712722206735334	0.0	0.9554379039392419	-0.5535360960140412	0.0	1.0066829794461896	-0.5594862231213521	0.0	0.9572884005274789	-0.5001630338643109	0.0	0.9165524358201476	-0.5617290954326685	0.0	1.0240285222427483	-0.5527630500783922	0.0	0.9700803281612176	-0.5123759622417609	0.0	0.9408556525842208	-0.5563314199499831	0.0
83	2.7800322061191625	1.149773174967875	-0.4721732310175949	0.0	1.1438205373148933	-0.47373466491427624	0.0	1.0168465057933063	-0.4119262116542129	0.0	1.1264077906190706	-0.36195301625528986	0.0	1.118541922187951	-0.3177920888803185	0.0	1.1283845142646978	-0.32895804568117376	0.0	1.1453665141314728	-0.3559171023148614	0.0	1.1482473196330902	-0.4725461261281628	0.0	1.027184152476578	-0.40726075278373064	0.0	1.1277211661674418	-0.3569607561701087	0.0	1.1273598934909441	-0.3153345007618973	0.0	1.1300703677356485	-0.31744115877101864	0.0	1.1495818257537675	-0.34738228529692877	0.0	1.0036159015781727	-0.5609931902603078	0.0	0.927240139243031	-0.5693834102219728	0.0	0.9599929682192675	-0.5519195853553949	0.0	1.008845700840797	-0.5600790399648904	0.0	0.9601160699534902	-0.5001104572311265	0.0	0.9190829490387027	-0.5605746274892731	0.0	1.0256476546042328	-0.5522269158545621	0.0	0.9702651637139816	-0.5121359231560612	0.0	0.9405775981011414	-0.5553302738558993	0.0
84	2.813526570048309	1.156223664914358	-0.4821252291413411	0.0	1.1512566709354817	-0.48276494236590517	0.0	1.0285624429191937	-0.4126084712562038	0.0	1.141158457319845	-0.36843867450186174	0.0	1.135873502043336	-0.3197433386959352	0.0	1.1458651056616698	-0.3299034674967058	0.0	1.1612993007940928	-0.364968363494478	0.0	1.1546239032228045	-0.4812858286050446	0.0	1.0365620905717094	-0.4078607457843004	0.0	1.1411873097898493	-0.36369156133994274	0.0	1.1459812022591478	-0.3173996278501622	0.0	1.145641270035767	-0.3214447885789067	0.0	1.166002504989144	-0.3579754992248316	0.0	1.0054534073932044	-0.5607553747518716	0.0	0.9289400579901401	-0.5669379136568707	0.0	0.9636089003297901	-0.5503458963724268	0.0	1.01128882329691	-0.5601319568805557	0.0	0.963212696984502	-0.49927063565048274	0.0	0.9221712105772663	-0.5586901810977175	0.0	1.0264845577813348	-0.5523555746099598	0.0	0.9711093760206476	-0.511809307534626	0.0	0.9405020910009523	-0.5537003948645447	0.0
85	2.8470209339774555	1.1621738922582119	-0.4925976184019305	0.0	1.1579072363808718	-0.4920326799259012	0.0	1.0405533938808222	-0.41370914482896476	0.0	1.1556776075846837	-0.37517617655590013	0.0	1.153404391153761	-0.3221972133637951	0.0	1.1633353440221237	-0.3312608264989963	0.0	1.176724314288967	-0.3742626806815189	0.0	1.1604490853056046	-0.49068620611174163	0.0	1.0464072273158684	-0.4092822555826103	0.0	1.1545481361804577	-0.37085588397548813	0.0	1.1641974805499171	-0.32104188207165835	0.0	1.1622774590973761	-0.32720189906717606	0.0	1.1818658169186909	-0.3693296475381843	0.0	1.0070319140564685	-0.5609687682940449	0.0	0.9303070195424257	-0.5641214295558036	0.0	0.9663932946597769	-0.5486113905733875	0.0	1.0140423117926032	-0.559844743051784	0.0	0.966870784069374	-0.4976669017113432	0.0	0.925745975274937	-0.5559953610027887	0.0	1.0268888182601934	-0.5534054679310031	0.0	0.9732401244160087	-0.5116201608553009	0.0	0.9411148670372783	-0.5513585275493433	0.0
86	2.880515297906602	1.1676171573908933	-0.5032456618944372	0.0	1.1637132996762236	-0.5015590976204216	0.0	1.0526520186777082	-0.41514715407908975	0.0	1.169892061037527	-0.38223423717700994	0.0	1.171219495286912	-0.32585925792988574	0.0	1.1807511143769804	-0.3341581191954241	0.0	1.1914844361725982	-0.3838926894942673	0.0	1.1656944914230072	-0.5005254417548631	0.0	1.0567458716252138	-0.4114887246564911	0.0	1.1679085649064807	-0.378440550868959	0.0	1.1821275684517605	-0.3267754446154892	0.0	1.1801148075305146	-0.3352083413286373	0.0	1.197123236570688	-0.3810510970225361	0.0	1.0082250648779374	-0.5615520247887433	0.0	0.9313755364381207	-0.5606904076543122	0.0	0.9687058884323754	-0.546316479358936	0.0	1.0169405434781966	-0.5593887966378535	0.0	0.9713616271304452	-0.49533491730207274	0.0	0.9297827849907001	-0.5524209120899102	0.0	1.027148920623419	-0.5551586174050132	0.0	0.9767161632283904	-0.5112829966606447	0.0	0.9425854069116024	-0.5483228209351203	0.0
